# xmcd CD database file
#
# Track frame offsets:
#	150
#	20250
#	40137
#	63307
#	82492
#	97725
#	123782
#	140892
#	166435
#	186135
#
# Disc length: 2578 seconds
#
# Revision: 4
# Processed by: cddbd v1.5.2PL0 Copyright (c) Steve Scherf et al.
# Submitted via: CDex 1.51
#
DISCID=830a100a
DTITLE=Magic Sam - Magic Sam Live (Disc-1: Magic Sam At The Alex Club, Chicago (1963-64))
DYEAR=1900
DGENRE=Blues
TTITLE0=Every Night About This Time
TTITLE1=I Don't Believe You'd Let Me Down
TTITLE2=Mole's Blues
TTITLE3=I Just Got To Know
TTITLE4=Tore Down
TTITLE5=You Were Wrong
TTITLE6=Backstroke
TTITLE7=Come On In This House
TTITLE8=Looking Good
TTITLE9=Riding High
EXTD=
EXTT0=
EXTT1=
EXTT2=
EXTT3=
EXTT4=
EXTT5=
EXTT6=
EXTT7=
EXTT8=
EXTT9=
PLAYORDER=
